HIERARCHY
ROOT hip
{
  OFFSET 0 0 0
  CHANNELS 6 Xposition Yposition Zposition Zrotation Yrotation Xrotation
  JOINT abdomen
  {
    OFFSET 0 20.6881 -0.73152
    CHANNELS 3 Zrotation Xrotation Yrotation
    JOINT chest
    {
      OFFSET 0 11.7043 -0.48768
      CHANNELS 3 Zrotation Xrotation Yrotation
      JOINT neck
      {
        OFFSET 0 22.1894 -2.19456
        CHANNELS 3 Zrotation Xrotation Yrotation
        JOINT head
        {
          OFFSET -0.24384 7.07133 1.2192
          CHANNELS 3 Zrotation Xrotation Yrotation
          JOINT leftEye
          {
            OFFSET 4.14528 8.04674 8.04672
            CHANNELS 3 Zrotation Xrotation Yrotation
            End Site
            {
              OFFSET 1 0 0
            }
          }
          JOINT rightEye
          {
            OFFSET -3.6576 8.04674 8.04672
            CHANNELS 3 Zrotation Xrotation Yrotation
            End Site
            {
              OFFSET 1 0 0
            }
          }
        }
      }
      JOINT rCollar
      {
        OFFSET -2.68224 19.2634 -4.8768
        CHANNELS 3 Zrotation Xrotation Yrotation
        JOINT rShldr
        {
          OFFSET -8.77824 -1.95073 1.46304
          CHANNELS 3 Zrotation Xrotation Yrotation
          JOINT rForeArm
          {
            OFFSET -28.1742 -1.7115 0.48768
            CHANNELS 3 Zrotation Xrotation Yrotation
            JOINT rHand
            {
              OFFSET -22.5879 0.773209 7.07136
              CHANNELS 3 Zrotation Xrotation Yrotation
              JOINT rThumb1
              {
                OFFSET -1.2192 -0.487915 3.41376
                CHANNELS 3 Zrotation Xrotation Yrotation
                JOINT rThumb2
                {
                  OFFSET -3.37035 -0.52449 3.41376
                  CHANNELS 3 Zrotation Xrotation Yrotation
                  End Site
                  {
                    OFFSET -1.78271 -1.18214 1.43049
                  }
                }
              }
              JOINT rIndex1
              {
                OFFSET -7.75947 0.938293 5.60832
                CHANNELS 3 Zrotation Xrotation Yrotation
                JOINT rIndex2
                {
                  OFFSET -2.54057 -0.884171 1.56538
                  CHANNELS 3 Zrotation Xrotation Yrotation
                  End Site
                  {
                    OFFSET -1.62519 -0.234802 1.16502
                  }
                }
              }
              JOINT rMid1
              {
                OFFSET -8.24714 1.18213 3.41376
                CHANNELS 3 Zrotation Xrotation Yrotation
                JOINT rMid2
                {
                  OFFSET -3.10165 -0.590103 1.0647
                  CHANNELS 3 Zrotation Xrotation Yrotation
                  End Site
                  {
                    OFFSET -2.48547 -0.328903 0.83742
                  }
                }
              }
              JOINT rRing1
              {
                OFFSET -8.82822 0.546677 1.51678
                CHANNELS 3 Zrotation Xrotation Yrotation
                JOINT rRing2
                {
                  OFFSET -2.60934 -0.819778 -0.0198488
                  CHANNELS 3 Zrotation Xrotation Yrotation
                  End Site
                  {
                    OFFSET -2.33842 -0.294052 0.168128
                  }
                }
              }
              JOINT rPinky1
              {
                OFFSET -8.27202 -0.0477905 -0.4584
                CHANNELS 3 Zrotation Xrotation Yrotation
                JOINT rPinky2
                {
                  OFFSET -1.82734 -0.647385 -0.700984
                  CHANNELS 3 Zrotation Xrotation Yrotation
                  End Site
                  {
                    OFFSET -1.69225 -0.51767 -0.607171
                  }
                }
              }
            }
          }
        }
      }
      JOINT lCollar
      {
        OFFSET 2.68224 19.2634 -4.8768
        CHANNELS 3 Zrotation Xrotation Yrotation
        JOINT lShldr
        {
          OFFSET 8.77824 -1.95073 1.46304
          CHANNELS 3 Zrotation Xrotation Yrotation
          JOINT lForeArm
          {
            OFFSET 28.1742 -1.7115 0.48768
            CHANNELS 3 Zrotation Xrotation Yrotation
            JOINT lHand
            {
              OFFSET 22.5879 0.773209 7.07136
              CHANNELS 3 Zrotation Xrotation Yrotation
              JOINT lThumb1
              {
                OFFSET 1.2192 -0.487915 3.41376
                CHANNELS 3 Zrotation Xrotation Yrotation
                JOINT lThumb2
                {
                  OFFSET 3.37035 -0.52449 3.41376
                  CHANNELS 3 Zrotation Xrotation Yrotation
                  End Site
                  {
                    OFFSET 1.78271 -1.18214 1.43049
                  }
                }
              }
              JOINT lIndex1
              {
                OFFSET 7.75947 0.938293 5.60832
                CHANNELS 3 Zrotation Xrotation Yrotation
                JOINT lIndex2
                {
                  OFFSET 2.54057 -0.884171 1.56538
                  CHANNELS 3 Zrotation Xrotation Yrotation
                  End Site
                  {
                    OFFSET 1.62519 -0.234802 1.16502
                  }
                }
              }
              JOINT lMid1
              {
                OFFSET 8.24714 1.18213 3.41376
                CHANNELS 3 Zrotation Xrotation Yrotation
                JOINT lMid2
                {
                  OFFSET 3.10165 -0.590103 1.0647
                  CHANNELS 3 Zrotation Xrotation Yrotation
                  End Site
                  {
                    OFFSET 2.48547 -0.328903 0.83742
                  }
                }
              }
              JOINT lRing1
              {
                OFFSET 8.82822 0.546677 1.51678
                CHANNELS 3 Zrotation Xrotation Yrotation
                JOINT lRing2
                {
                  OFFSET 2.60934 -0.819778 -0.0198488
                  CHANNELS 3 Zrotation Xrotation Yrotation
                  End Site
                  {
                    OFFSET 2.33842 -0.294052 0.168128
                  }
                }
              }
              JOINT lPinky1
              {
                OFFSET 8.27202 -0.0477905 -0.4584
                CHANNELS 3 Zrotation Xrotation Yrotation
                JOINT lPinky2
                {
                  OFFSET 1.82734 -0.647385 -0.700984
                  CHANNELS 3 Zrotation Xrotation Yrotation
                  End Site
                  {
                    OFFSET 1.69225 -0.51767 -0.607171
                  }
                }
              }
            }
          }
        }
      }
    }
  }
  JOINT rButtock
  {
    OFFSET -8.77824 4.35084 1.2192
    CHANNELS 3 Zrotation Xrotation Yrotation
    JOINT rThigh
    {
      OFFSET 0 -1.70687 -2.19456
      CHANNELS 3 Zrotation Xrotation Yrotation
      JOINT rShin
      {
        OFFSET 0 -36.8199 0.73152
        CHANNELS 3 Zrotation Xrotation Yrotation
        JOINT rFoot
        {
          OFFSET 0.73152 -45.1104 -5.12064
          CHANNELS 3 Zrotation Xrotation Yrotation
          End Site
          {
            OFFSET -1.1221 -3.69964 12.103
          }
        }
      }
    }
  }
  JOINT lButtock
  {
    OFFSET 8.77824 4.35084 1.2192
    CHANNELS 3 Zrotation Xrotation Yrotation
    JOINT lThigh
    {
      OFFSET 0 -1.70687 -2.19456
      CHANNELS 3 Zrotation Xrotation Yrotation
      JOINT lShin
      {
        OFFSET 0 -36.8199 0.73152
        CHANNELS 3 Zrotation Xrotation Yrotation
        JOINT lFoot
        {
          OFFSET -0.73152 -45.1104 -5.12064
          CHANNELS 3 Zrotation Xrotation Yrotation
          End Site
          {
            OFFSET 1.1221 -3.69964 12.103
          }
        }
      }
    }
  }
}
MOTION
Frames:	5
Frame Time:	0.00833333
0.0 0.0 0.0 0.0 0.0 0.0 0.0 0.0 0.0 0.0 0.0 0.0 0.0 0.0 0.0 0.0 0.0 0.0 0.0 0.0 0.0 0.0 0.0 0.0 0.0 0.0 0.0 0.0 0.0 0.0 0.0 0.0 0.0 0.0 0.0 0.0 0.0 0.0 0.0 0.0 0.0 0.0 0.0 0.0 0.0 0.0 0.0 0.0 0.0 0.0 0.0 0.0 0.0 0.0 0.0 0.0 0.0 0.0 0.0 0.0 0.0 0.0 0.0 0.0 0.0 0.0 0.0 0.0 0.0 0.0 0.0 0.0 0.0 0.0 0.0 0.0 0.0 0.0 0.0 0.0 0.0 0.0 0.0 0.0 0.0 0.0 0.0 0.0 0.0 0.0 0.0 0.0 0.0 0.0 0.0 0.0 0.0 0.0 0.0 0.0 0.0 0.0 0.0 0.0 0.0 0.0 0.0 0.0 0.0 0.0 0.0 0.0 0.0 0.0 0.0 0.0 0.0 0.0 0.0 0.0 0.0 0.0 0.0 0.0 0.0 0.0 0.0 0.0 0.0 0.0 0.0 0.0
-99.2453 84.0997 4.2183 -15.18699 85.129388 -7.746544 0.149887 -1.195933 -14.156135 -0.884101 0.54041 16.556478 9.958866 19.024254 126.979745 -10.919202 21.070636 -136.531256 -0.000687 0.0 -0.004563 -0.00117 -0.0 0.001016 3.543168 -62.053119 -13.037471 -12.627635 -61.615093 -26.477365 18.538223 -63.989309 -29.224133 167.277082 -18.552062 144.130432 -2.813737 2.754277 0.498208 -137.054632 -40.018267 117.163039 -0.328378 0.529622 0.186573 -83.894029 47.595456 65.611097 0.542602 -1.589784 -0.293954 -154.08733 20.055555 138.724023 -145.117883 0.185027 -179.187507 12.012083 50.941148 -2.997667 -75.778409 -51.667202 -74.249774 -24.075375 -40.969946 -26.064935 -4.238382 -44.742785 8.648348 167.318365 64.197353 175.005242 19.700573 -0.105404 16.711279 -39.865741 -62.868774 -27.004345 -81.971123 -50.092457 -32.72304 57.483313 31.52037 -19.420324 -0.186233 -0.299768 0.105506 65.716179 48.409793 -50.696888 36.035242 51.723491 -29.831792 175.113365 -39.395172 -143.22102 145.099498 -1.520437 178.648803 152.246073 -25.057715 175.332497 161.704956 70.564161 151.026373 162.486292 55.633949 147.586974 -179.99778 75.750886 -0.001519 177.555854 67.273331 2.649605 -4.626877 12.570828 -54.19985 -21.659917 -31.502498 55.261115 179.999934 75.749848 4.5e-05 -179.559948 70.604938 -0.412177 5.34364 7.166078 73.044632 21.298386 -61.728085 -77.133551
-99.2645 84.0122 4.0168 -14.137374 85.161495 -6.767809 -1.426718 -7.075964 -180.0 0.509953 -6.134133 -175.0477 -5.901967 27.741945 -134.582386 22.008759 24.065973 109.421602 0.00072 -0.0 -0.000902 0.001275 0.0 0.001093 1.989679 -14.052846 -2.882321 46.68751 -3.896844 -10.957299 168.306576 -16.380522 123.570658 166.408069 -14.584319 146.046728 -169.571693 -7.254089 89.929345 106.281994 -63.228463 78.693969 -141.998372 -0.612471 116.934411 -17.511762 39.270193 6.120756 -167.374287 -28.008245 145.271221 -7.559926 26.103416 6.427651 -145.123464 1.975609 -179.748465 -150.495127 -35.140015 -173.023881 -126.798934 -26.619164 -124.511707 -154.662664 36.786967 -146.336789 147.865562 28.559826 -152.689775 -151.655729 -19.335518 -145.73769 107.869428 59.691854 -79.490575 -111.249304 -70.23015 -94.18376 164.698955 -2.371685 -89.585449 25.773609 -33.165097 -8.07762 151.355344 -17.158329 -121.13183 177.29105 -43.418109 -115.184645 -23.902486 -61.33407 -1.398506 164.179863 -6.969042 -143.453179 145.100844 -1.522523 178.650836 54.635318 87.579001 -67.970891 143.93806 8.265123 140.719953 24.119926 -39.125622 25.600325 -0.000589 -0.000444 0.000757 -3.105862 -12.566158 -0.0 8.745343 24.35674 115.169251 -61.728116 -25.252625 -152.804333 -179.968278 75.749043 -0.0261 -178.68668 65.420499 -180.0 6.3321 -17.964766 39.48884 64.459147 -7.201279 164.636145
-99.2971 83.9313 3.8188 -13.689836 85.264217 -6.387238 -1.348122 -3.503838 -21.06004 -2.396904 1.341894 28.21312 10.29949 20.546119 81.90302 -28.128636 13.392007 -111.875955 0.000347 -0.0 -0.002583 0.000347 -0.0 -0.002583 -130.419996 54.549348 134.288051 79.91222 -26.125267 100.122229 125.862167 -32.201527 131.258022 -172.31164 52.194854 149.572407 27.450102 -26.099567 2.267678 -18.318919 13.27219 -0.702276 -50.386563 40.825986 40.025008 -162.084476 -7.187831 112.241757 -171.870221 -41.0912 145.160203 -167.543023 -17.335336 143.86563 0.000497 0.063882 0.02021 8.111968 22.052335 3.178469 -7.14331 -15.707154 -6.729766 -173.826022 79.059667 -143.289189 -3.269275 -26.755826 5.24125 109.599536 -6.386189 160.654639 178.330334 7.187098 157.369886 8.105877 20.256515 -0.252417 -1.177638 -1.16588 0.170017 153.67882 -65.642465 -120.417223 129.576276 16.761249 -108.786101 163.433297 -12.472442 -118.107246 170.280676 -36.723188 -145.341655 2.159896 14.247466 -2.906598 -8.6e-05 0.02262 -0.007127 -11.107561 -13.792329 1.714643 145.545865 13.245004 142.147543 -8.364735 17.009056 -2.333356 -0.00103 -0.000531 0.001324 -5.137482 -16.338274 -1.54697 6.603467 33.73487 150.32289 115.97065 22.991889 173.933 -0.001915 0.001361 -0.001915 0.877707 -10.709756 8.384452 2.550529 8.044027 13.566487 -95.550911 -11.907563 5.608851
-99.351 83.8678 3.6492999999999998 -14.091397 85.416693 -6.843189 -0.302933 -7.046278 -104.695882 -4.26177 -4.761735 113.159616 0.574504 16.339308 12.106067 -15.942286 -18.702766 -53.725342 0.004325 -0.0 -0.002905 -0.001228 0.0 -0.002097 -147.802447 28.731919 152.620823 -68.415458 -12.347868 37.134005 -171.678165 2.769829 -149.618382 -6.978652 45.193357 5.041217 -169.572982 -7.253578 89.929178 -171.423942 -9.394251 89.28975 73.421449 -73.570363 26.564741 -112.181759 41.745659 93.928456 -161.153988 -8.160974 143.463552 3.153109 0.177958 0.387411 -145.118385 0.226348 -179.200039 -141.828935 -56.543852 -163.97903 44.753627 86.377141 -5.387645 -1.971934 -8.180119 -3.843652 13.743681 42.431494 -15.569465 -71.805975 9.987513 -47.560543 -173.228549 37.822428 -122.60187 -175.155691 -8.852916 -144.098778 6.581632 6.344701 -1.365213 -11.338214 -12.967894 4.000749 50.387201 40.825369 -40.025307 12.367597 25.119304 -5.206255 8.305631 20.652682 -5.560431 -2.745822 1.662711 -0.214883 0.014642 -1.323241 0.415296 155.314315 -1.21388 -171.99694 -34.188842 84.167048 -4.358218 25.853513 -40.667103 25.853508 -0.003879 0.000324 -0.003879 -5.822873 -21.249861 -136.103508 -34.500052 -21.186104 -95.463965 -42.510573 10.477108 -150.956281 -0.005537 -0.000838 -0.002769 1.536494 -12.742861 0.368772 -9.441872 16.071567 -97.529999 -33.145356 71.619212 125.119388
